<svg id="svg" viewBox="-76,-76,152,152" xmlns="http://www.w3.org/2000/svg">
  <defs>
    <rect id="mark" x="-1" y="-1" width="2" height="2" />
  </defs>
  <path stroke="brown" stroke-width="1" fill="none"
    d="m-70,-70h140v140h-140zm10,0v140m10,0v-140m10,0v140m10,0v-140m10,0v140m10,0v-140m10,0v140m10,0v-140m10,0v140m10,0v-140m10,0v140m10,0v-140m10,0v140m10,-10h-140m0,-10h140m0,-10h-140m0,-10h140m0,-10h-140m0,-10h140m0,-10h-140m0,-10h140m0,-10h-140m0,-10h140m0,-10h-140m0,-10h140m0,-10h-140" />
  <use xlink:href="#mark" />
  <use xlink:href="#mark" x="40" y="40" />
  <use xlink:href="#mark" x="40" y="-40" />
  <use xlink:href="#mark" x="-40" y="40" />
  <use xlink:href="#mark" x="-40" y="-40" />
  <text stroke-width="2" fill="blue">
    11
  </text>
</svg>